<?xml version="1.0" standalone="no"?>
<!DOCTYPE svg PUBLIC "-//W3C//DTD SVG 20010904//EN"
 "http://www.w3.org/TR/2001/REC-SVG-20010904/DTD/svg10.dtd">
<svg version="1.0" xmlns="http://www.w3.org/2000/svg"
 width="500.000000pt" height="500.000000pt" viewBox="0 0 500.000000 500.000000"
 preserveAspectRatio="xMidYMid meet">
<metadata>
Created by potrace 1.11, written by Peter Selinger 2001-2013
</metadata>
<g transform="translate(0.000000,500.000000) scale(0.100000,-0.100000)"
fill="#000000" stroke="none">
<path d="M0 2500 l0 -2500 2500 0 2500 0 0 2500 0 2500 -2500 0 -2500 0 0
-2500z m2089 808 c5 -13 66 -234 136 -493 70 -258 130 -473 133 -477 4 -4 65
210 136 475 71 265 133 490 138 500 7 13 21 17 68 17 32 0 61 -3 63 -7 3 -5
-68 -276 -158 -603 l-162 -595 -81 -3 -81 -3 -7 28 c-4 15 -78 285 -164 598
-87 314 -155 573 -153 578 2 4 31 7 64 7 53 0 60 -3 68 -22z m-359 -48 l0 -60
-225 0 -225 0 0 -185 0 -185 149 0 150 0 -21 -60 -20 -60 -129 0 -129 0 0
-240 0 -240 220 0 220 0 0 -55 0 -55 -285 0 -285 0 0 600 0 600 290 0 290 0 0
-60z m1448 -202 c49 -145 123 -361 163 -480 41 -120 77 -218 80 -218 3 0 79
215 170 478 l165 477 62 3 62 3 0 -601 0 -600 -60 0 -60 0 -1 413 0 412 -141
-412 -140 -413 -58 0 -58 0 -135 408 -135 407 -1 -407 -1 -408 -65 0 -65 0 0
600 0 600 64 0 64 0 90 -262z"/>
</g>
</svg>
